<?xml version="1.0" standalone="no"?>
<!DOCTYPE svg PUBLIC "-//W3C//DTD SVG 20010904//EN"
 "http://www.w3.org/TR/2001/REC-SVG-20010904/DTD/svg10.dtd">
<svg version="1.0" xmlns="http://www.w3.org/2000/svg"
 width="260.000000pt" height="260.000000pt" viewBox="0 0 260.000000 260.000000"
 preserveAspectRatio="xMidYMid meet">
<metadata>
Created by potrace 1.11, written by Peter Selinger 2001-2013
</metadata>
<g transform="translate(0.000000,260.000000) scale(0.100000,-0.100000)"
fill="#000000" stroke="none">
<path d="M0 1300 l0 -1300 1300 0 1300 0 0 1300 0 1300 -1300 0 -1300 0 0
-1300z m1957 966 c-3 -7 -159 -283 -346 -612 l-341 -599 88 -33 c184 -72 320
-89 433 -56 80 24 203 90 298 162 46 34 85 61 86 60 1 -2 -7 -61 -18 -132
l-20 -129 -76 -48 c-152 -98 -295 -136 -467 -125 -120 8 -177 21 -313 75 -56
23 -105 41 -109 41 -4 0 -77 -124 -162 -275 l-155 -274 -108 -1 -108 0 12 23
c7 12 158 278 336 591 177 312 323 571 323 575 0 8 -156 72 -235 96 -175 53
-352 11 -550 -130 -42 -31 -80 -54 -82 -51 -5 4 23 190 33 228 7 22 133 101
226 141 64 27 87 31 191 35 148 6 201 -5 374 -73 76 -30 143 -55 148 -55 6 0
84 131 174 290 l163 290 105 0 c84 0 104 -3 100 -14z m289 -463 c-3 -10 -13
-69 -22 -130 l-17 -113 -54 -36 c-68 -45 -179 -96 -263 -120 -76 -21 -282 -26
-301 -7 -8 8 1 33 38 95 l49 83 79 6 c54 4 106 17 161 38 75 29 219 116 289
175 35 30 48 33 41 9z m-1263 -630 c33 -6 34 1 -23 -102 l-45 -81 -50 0 c-132
0 -317 -84 -484 -219 -43 -35 -44 -35 -38 -11 3 14 13 75 22 137 17 111 17
112 54 136 60 40 173 94 242 116 112 37 216 44 322 24z"/>
</g>
</svg>
