<svg display="none" version="1.1" xmlns="http://www.w3.org/2000/svg" xmlns:xlink="http://www.w3.org/1999/xlink">
  <defs>

    <symbol id="icon-social-telegram-small" viewBox="0 0 32 32"><path d="M29.946 3.104L.68 14.32c-.948.364-.89 1.701.085 1.985l7.437 2.16 2.775 8.661c.29.905 1.456 1.18 2.131.502l3.845-3.862 7.544 5.447c.924.666 2.239.171 2.473-.931l4.997-23.496c.244-1.15-.907-2.11-2.02-1.682zm-3.669 5.214L12.683 20.14a.714.714 0 0 0-.242.458l-.523 4.575c-.017.15-.23.17-.275.026L9.49 18.376a.713.713 0 0 1 .312-.824L25.855 7.76c.37-.225.748.275.422.558z"/></symbol>

  </defs>
</svg>