<svg display="none" version="1.1" xmlns="http://www.w3.org/2000/svg" xmlns:xlink="http://www.w3.org/1999/xlink">
  <defs>

    <symbol id="icon-social-telegram-small" viewBox="0 0 32 32"><path d="M29.946 3.104L.68 14.32c-.948.364-.89 1.701.085 1.985l7.437 2.16 2.775 8.661c.29.905 1.456 1.18 2.131.502l3.845-3.862 7.544 5.447c.924.666 2.239.171 2.473-.931l4.997-23.496c.244-1.15-.907-2.11-2.02-1.682zm-3.669 5.214L12.683 20.14a.714.714 0 0 0-.242.458l-.523 4.575c-.017.15-.23.17-.275.026L9.49 18.376a.713.713 0 0 1 .312-.824L25.855 7.76c.37-.225.748.275.422.558z"/></symbol>
    <symbol id="icon-social-github-small" viewBox="0 0 32 32"><path d="M16 0C7.164 0 0 7.35 0 16.407c0 7.25 4.586 13.393 10.943 15.564.1.022.186.029.271.029.593 0 .822-.436.822-.814 0-.393-.015-1.422-.022-2.793-.6.136-1.135.193-1.614.193-3.079 0-3.779-2.393-3.779-2.393-.728-1.893-1.778-2.4-1.778-2.4-1.393-.979-.007-1.007.1-1.007 1.614.143 2.457 1.7 2.457 1.7.8 1.4 1.871 1.793 2.829 1.793.75 0 1.428-.243 1.828-.429.143-1.057.557-1.779 1.014-2.193-3.55-.414-7.285-1.821-7.285-8.107 0-1.793.621-3.257 1.643-4.4-.165-.414-.715-2.086.157-4.343 0 0 .114-.036.357-.036.578 0 1.886.222 4.043 1.722a14.989 14.989 0 0 1 4.007-.55c1.357.007 2.728.186 4.007.55 2.157-1.5 3.464-1.722 4.043-1.722.243 0 .357.036.357.036.871 2.257.321 3.929.157 4.343 1.022 1.15 1.643 2.614 1.643 4.4 0 6.3-3.743 7.686-7.307 8.093.571.507 1.086 1.507 1.086 3.036 0 2.192-.022 3.964-.022 4.5 0 .385.222.821.814.821.086 0 .186-.007.286-.029C27.421 29.8 32 23.65 32 16.407 32 7.35 24.836 0 16 0z"/></symbol>
    <symbol id="icon-social-weibo-small" viewBox="0 0 32 32"><path d="M23.538 16.111c-.441-.136-.744-.23-.513-.827.5-1.297.552-2.416.01-3.214-1.018-1.498-3.8-1.418-6.99-.04 0-.002-1.002.451-.746-.368.49-1.626.416-2.987-.347-3.773-1.73-1.785-6.333.068-10.281 4.133C1.715 15.07 0 18.297 0 21.09 0 26.428 6.644 30 13.145 30c8.522 0 14.192-5.427 14.192-9.478 0-2.448-2.001-3.837-3.799-4.411zM13.163 27.606c-5.187.52-9.665-1.865-10.002-5.333-.337-3.466 3.596-6.7 8.783-7.222 5.188-.523 9.666 1.865 10.002 5.331.336 3.468-3.594 6.702-8.783 7.224zM32 11.763C31.997 6.371 27.68 2 22.352 2c-.622 0-1.126.51-1.126 1.14 0 .63.504 1.14 1.126 1.14 4.085 0 7.397 3.352 7.397 7.487 0 .63.504 1.14 1.125 1.14.622 0 1.126-.51 1.126-1.14v-.004zm-4.473-.167c-.514-2.543-2.494-4.547-5.005-5.067a1.125 1.125 0 0 0-1.329.886 1.14 1.14 0 0 0 .875 1.346 4.214 4.214 0 0 1 3.254 3.294c.126.616.72 1.012 1.33.886.608-.127 1-.73.875-1.345zm-17.025 6.85c-2.09.426-3.5 2.2-3.15 3.962.35 1.763 2.328 2.848 4.418 2.422 2.09-.425 3.5-2.199 3.15-3.962-.35-1.762-2.328-2.847-4.418-2.422z"/></symbol>

  </defs>
</svg>