<svg display="none" version="1.1" xmlns="http://www.w3.org/2000/svg" xmlns:xlink="http://www.w3.org/1999/xlink">
  <defs>

    <symbol id="icon-social-telegram-small" viewBox="0 0 32 32"><path d="M29.946 3.104L.68 14.32c-.948.364-.89 1.701.085 1.985l7.437 2.16 2.775 8.661c.29.905 1.456 1.18 2.131.502l3.845-3.862 7.544 5.447c.924.666 2.239.171 2.473-.931l4.997-23.496c.244-1.15-.907-2.11-2.02-1.682zm-3.669 5.214L12.683 20.14a.714.714 0 0 0-.242.458l-.523 4.575c-.017.15-.23.17-.275.026L9.49 18.376a.713.713 0 0 1 .312-.824L25.855 7.76c.37-.225.748.275.422.558z"/></symbol>
    <symbol id="icon-social-telegram-channel" viewBox="0 0 32 32"><path fill-rule="evenodd" d="M17.733 8.933v-.265l8.34-6.31C27.27 1.48 29 2.313 29 3.803l-.044 20.64c0 1.49-1.73 2.366-2.927 1.447l-8.296-6.268v-.29h-6.5l2.03 9.158c.135.62-.31 1.198-.932 1.198l-2.666.044a.948.948 0 0 1-.932-.754L6.555 19.87h-.357A3.181 3.181 0 0 1 3 16.847v-5.019c.088-1.69 1.468-2.895 3.198-2.895h11.535z"/></symbol>
    <symbol id="icon-social-telegram-group" viewBox="0 0 32 32"><path d="M15 17c-1.5 1.5-5 3-5 5.833V27H0v-4.167C0 18.95 7.345 17 11.01 17c.456 0 3.44-.083 3.99 0zm7 2c3.329 0 10 1.56 10 4.667V27H12v-3.333C12 20.56 18.671 19 22 19zm0-2a4 4 0 1 1 0-8 4 4 0 0 1 0 8zm-10.496-2.268a4.866 4.866 0 1 1 0-9.732 4.866 4.866 0 0 1 0 9.732z"/></symbol>
    <symbol id="icon-social-github-small" viewBox="0 0 32 32"><path d="M16 0C7.164 0 0 7.35 0 16.407c0 7.25 4.586 13.393 10.943 15.564.1.022.186.029.271.029.593 0 .822-.436.822-.814 0-.393-.015-1.422-.022-2.793-.6.136-1.135.193-1.614.193-3.079 0-3.779-2.393-3.779-2.393-.728-1.893-1.778-2.4-1.778-2.4-1.393-.979-.007-1.007.1-1.007 1.614.143 2.457 1.7 2.457 1.7.8 1.4 1.871 1.793 2.829 1.793.75 0 1.428-.243 1.828-.429.143-1.057.557-1.779 1.014-2.193-3.55-.414-7.285-1.821-7.285-8.107 0-1.793.621-3.257 1.643-4.4-.165-.414-.715-2.086.157-4.343 0 0 .114-.036.357-.036.578 0 1.886.222 4.043 1.722a14.989 14.989 0 0 1 4.007-.55c1.357.007 2.728.186 4.007.55 2.157-1.5 3.464-1.722 4.043-1.722.243 0 .357.036.357.036.871 2.257.321 3.929.157 4.343 1.022 1.15 1.643 2.614 1.643 4.4 0 6.3-3.743 7.686-7.307 8.093.571.507 1.086 1.507 1.086 3.036 0 2.192-.022 3.964-.022 4.5 0 .385.222.821.814.821.086 0 .186-.007.286-.029C27.421 29.8 32 23.65 32 16.407 32 7.35 24.836 0 16 0z"/></symbol>
    <symbol id="icon-social-weibo-small" viewBox="0 0 32 32"><path d="M23.538 16.111c-.441-.136-.744-.23-.513-.827.5-1.297.552-2.416.01-3.214-1.018-1.498-3.8-1.418-6.99-.04 0-.002-1.002.451-.746-.368.49-1.626.416-2.987-.347-3.773-1.73-1.785-6.333.068-10.281 4.133C1.715 15.07 0 18.297 0 21.09 0 26.428 6.644 30 13.145 30c8.522 0 14.192-5.427 14.192-9.478 0-2.448-2.001-3.837-3.799-4.411zM13.163 27.606c-5.187.52-9.665-1.865-10.002-5.333-.337-3.466 3.596-6.7 8.783-7.222 5.188-.523 9.666 1.865 10.002 5.331.336 3.468-3.594 6.702-8.783 7.224zM32 11.763C31.997 6.371 27.68 2 22.352 2c-.622 0-1.126.51-1.126 1.14 0 .63.504 1.14 1.126 1.14 4.085 0 7.397 3.352 7.397 7.487 0 .63.504 1.14 1.125 1.14.622 0 1.126-.51 1.126-1.14v-.004zm-4.473-.167c-.514-2.543-2.494-4.547-5.005-5.067a1.125 1.125 0 0 0-1.329.886 1.14 1.14 0 0 0 .875 1.346 4.214 4.214 0 0 1 3.254 3.294c.126.616.72 1.012 1.33.886.608-.127 1-.73.875-1.345zm-17.025 6.85c-2.09.426-3.5 2.2-3.15 3.962.35 1.763 2.328 2.848 4.418 2.422 2.09-.425 3.5-2.199 3.15-3.962-.35-1.762-2.328-2.847-4.418-2.422z"/></symbol>
    <symbol id="icon-social-twitter-small" viewBox="0 0 32 32"><path d="M28.724 9.376c.013.277.02.556.02.836 0 8.54-6.605 18.388-18.68 18.388-3.707 0-7.159-1.07-10.064-2.904.514.06 1.036.09 1.566.09 3.076 0 5.907-1.032 8.154-2.766-2.873-.052-5.297-1.92-6.133-4.488a6.648 6.648 0 0 0 2.965-.11c-3.003-.595-5.266-3.206-5.266-6.338v-.08a6.622 6.622 0 0 0 2.974.807c-1.762-1.158-2.92-3.137-2.92-5.38a6.35 6.35 0 0 1 .888-3.248 18.738 18.738 0 0 0 13.531 6.753 6.403 6.403 0 0 1-.17-1.474C15.59 5.894 18.53 3 22.154 3c1.89 0 3.595.785 4.792 2.04 1.496-.289 2.9-.827 4.169-1.568a6.497 6.497 0 0 1-2.886 3.576A13.298 13.298 0 0 0 32 6.031a13.233 13.233 0 0 1-3.276 3.345z"/></symbol>
    <symbol id="icon-social-reddit-small" viewBox="0 0 32 32"><path d="M31 16.538a3.295 3.295 0 0 0-3.41-3.17 3.3 3.3 0 0 0-2.156.913 16.013 16.013 0 0 0-8.672-2.771l1.462-7.026 4.82 1.013a2.252 2.252 0 1 0 4.479-.481 2.252 2.252 0 0 0-4.182-.896l-5.52-1.103a.698.698 0 0 0-.835.532v.011l-1.663 7.816a16.134 16.134 0 0 0-8.784 2.771 3.284 3.284 0 0 0-4.647.146 3.284 3.284 0 0 0 1.03 5.24c-.022.33-.022.66 0 .99 0 5.045 5.88 9.149 13.13 9.149 7.25 0 13.128-4.098 13.128-9.148.022-.33.022-.66 0-.991A3.288 3.288 0 0 0 31 16.538zM8.475 18.794a2.26 2.26 0 0 1 2.257-2.256 2.26 2.26 0 0 1 2.256 2.256 2.26 2.26 0 0 1-2.256 2.256 2.264 2.264 0 0 1-2.257-2.256zm13.084 6.192a8.648 8.648 0 0 1-5.565 1.735 8.648 8.648 0 0 1-5.565-1.735.608.608 0 1 1 .857-.857 7.358 7.358 0 0 0 4.686 1.417 7.413 7.413 0 0 0 4.708-1.372.634.634 0 0 1 .89.011c.241.247.236.65-.01.89v-.09zm-.403-3.858a2.26 2.26 0 0 1-2.256-2.256 2.26 2.26 0 0 1 2.256-2.256 2.26 2.26 0 0 1 2.256 2.256 2.252 2.252 0 0 1-2.16 2.34h-.113l.017-.084z"/></symbol>
    <symbol id="icon-social-email-small" viewBox="0 0 32 32"><path fill-rule="evenodd" d="M14.297 18.207L0 8.2C0 6.44 1.44 5 3.2 5h25.6C30.56 5 32 6.44 32 8.2L17.703 18.207c-.89.623-2.516.623-3.406 0zM16 21.577c-1.273 0-2.546-.341-3.54-1.02L0 12v11.861C0 25.588 1.44 27 3.2 27h25.6c1.76 0 3.2-1.412 3.2-3.139V12l-12.46 8.556c-.994.68-2.267 1.02-3.54 1.02z"/></symbol>

    <symbol id="icon-alert" viewBox="0 0 32 32"><path fill-rule="evenodd" d="M28.4 31H3.6c-1.455 0-2.626-.59-3.211-1.62-.588-1.029-.506-2.35.22-3.625l12.4-21.75C13.736 2.732 14.827 2 15.999 2c1.174 0 2.263.732 2.99 2.006l12.4 21.749c.729 1.275.81 2.596.222 3.625C31.024 30.41 29.853 31 28.4 31zM15.999 5c.165 0 .45.206.714.665l12.033 21.089c.262.459.297.811.214.955-.082.146-.401.291-.926.291H3.966c-.525 0-.844-.145-.926-.29-.083-.145-.048-.497.214-.956L15.287 5.667C15.55 5.206 15.834 5 16 5zm-1.557 13.865c.068.659.185 1.145.356 1.484.214.425.61.651 1.148.651.526 0 .925-.229 1.155-.66.186-.353.304-.832.36-1.46l.462-4.88c.051-.458.077-.917.077-1.365 0-.8-.115-1.405-.35-1.851-.19-.358-.616-.784-1.574-.784-.615 0-1.122.192-1.506.57-.378.371-.57.883-.57 1.52 0 .41.032 1.088.097 2.015l.345 4.76zM15.99 22c-.554 0-1.028.197-1.412.583A1.938 1.938 0 0 0 14 23.995c0 .626.209 1.125.618 1.484.396.347.864.521 1.393.521.522 0 .987-.178 1.379-.528.404-.363.61-.858.61-1.476a1.92 1.92 0 0 0-.593-1.415A1.942 1.942 0 0 0 15.991 22z"/></symbol>

    <symbol id="icon-arrow-next" viewBox="0 0 32 32"><path fill-rule="evenodd" d="M19.167 9.666a1.667 1.667 0 0 0-2.391 0 1.668 1.668 0 0 0 0 2.392l2.256 2.258H8.893c-.944 0-1.684.74-1.684 1.684s.74 1.684 1.684 1.684h10.139l-2.292 2.292a1.667 1.667 0 0 0 0 2.39c.337.338.776.506 1.18.506.438 0 .875-.168 1.178-.505l5.155-5.155c.303-.303.505-.74.505-1.179a1.58 1.58 0 0 0-.505-1.179l-5.086-5.188zM16 0c8.824 0 16 7.176 16 16s-7.176 16-16 16S0 24.824 0 16 7.176 0 16 0zm0 28.632c6.972 0 12.632-5.66 12.632-12.632 0-6.972-5.66-12.632-12.632-12.632C9.028 3.368 3.368 9.028 3.368 16c0 6.972 5.66 12.632 12.632 12.632z"/></symbol>
    <symbol id="icon-arrow-dropdown" viewBox="0 0 32 32"><path fill-rule="evenodd" d="M23.41 14.421l-6.054 5.935c-.354.393-.864.59-1.375.59-.512 0-1.022-.235-1.376-.59L8.59 14.341A1.842 1.842 0 0 1 8 12.965c0-.47.197-.982.59-1.375a1.945 1.945 0 0 1 2.79 0l2.674 2.674 1.927 1.713 2.004-1.713 2.634-2.633a1.946 1.946 0 0 1 2.791 0 1.945 1.945 0 0 1 0 2.79z"/></symbol>

    <symbol id="icon-feature1" viewBox="0 0 64 64"><path fill-rule="evenodd" d="M60.992 14.363v13.079c.061.669-.243 1.274-.667 1.697-.487.483-1.218.861-1.825.861-.67 0-1.155-.378-1.58-.8-.484-.487-.92-1.152-.92-1.758V20L37.726 38.526c-.484.482-1.215.785-1.943.725-.728-.06-1.458-.363-1.882-.968l-3.705-4.785-14.823 14.777c-.487.482-1.155.725-1.822.725-.668 0-1.335-.24-1.823-.725-.97-.968-.97-2.606 0-3.574l16.83-16.776c.483-.483 1.214-.786 1.942-.726.727.06 1.458.363 1.882.968l3.705 4.785L52 17h-6.738C43.987 17 43 15.83 43 14.5c0-1.27.927-2.5 2.262-2.5h13.18c1.275 0 2.55 1.031 2.55 2.363zM59.435 58H4.565C3.158 58 2 56.722 2 55.177V8.823C2 7.275 3.162 6 4.565 6 5.972 6 7 7.279 7 8.823V53h52.435c1.407 0 2.565.699 2.565 2.243C62 56.792 60.842 58 59.435 58z"/></symbol>
    <symbol id="icon-feature2" viewBox="0 0 64 64"><path fill-rule="evenodd" d="M30.954 3.002c-3.08.026-6.155.263-9.206.714-5.151.965-9.072 5.076-9.685 10.159l-1.75 10.234a21.858 21.858 0 0 0-.132 6.485l.225 1.764c1.81 9.115 7.109 16.88 12.98 24.054 1.846 2.254 4.242 4 7.044 4.498V49.715c-2.878-.147-5.72-.864-8.194-2.215-.96-.524-.62-1.976.47-2.022.193-.007.386.036.559.129 4.746 2.585 11.327 2.653 16.174.165a1.077 1.077 0 1 1 .982 1.914c-2.398 1.23-5.101 1.879-7.84 2.022V61c2.932-.359 5.284-2.23 7.073-4.592 5.434-7.174 11.89-16.082 13.056-24.61l.103-.849a24.411 24.411 0 0 0-.146-7.205l-1.685-9.869c-.918-5.37-5.292-9.542-10.812-10.313a66.642 66.642 0 0 0-9.216-.56zM20.813 15.614a10.498 10.498 0 0 1 1.749.064c2.315.276 4.549 1.323 6.557 3.205a1.076 1.076 0 1 1-1.47 1.566c-3.477-3.255-7.07-3.541-11.138-1.44-1.27.645-2.248-1.249-.986-1.911 1.746-.904 3.531-1.405 5.288-1.484zm21.662 0c1.76.082 3.542.58 5.288 1.484 1.261.662.283 2.556-.986 1.91-4.07-2.104-7.66-1.814-11.138 1.441a1.076 1.076 0 0 1-1.47-1.566c2.008-1.882 4.244-2.929 6.557-3.205.577-.064 1.161-.09 1.749-.064zm-11.776 4.867h.043c.405-.01.782.205.976.56 1.05 1.928 1.591 4.155 1.612 6.388.022 2.233-.469 4.474-1.48 6.434-.269.53-.922.743-1.452.47a1.074 1.074 0 0 1-.462-1.452c1.656-3.226 1.61-7.657-.108-10.811a1.077 1.077 0 0 1 .875-1.589h-.004zm-12.073 2.413H25.125a1.077 1.077 0 0 1 1.09 1.076c0 .598-.492 1.082-1.09 1.075h-6.424c-1.434.05-1.51-2.1-.075-2.151zm19.458 0H44.583a1.078 1.078 0 0 1 1.09 1.076c0 .598-.492 1.082-1.09 1.075h-6.424c-1.433.05-1.509-2.1-.075-2.151zM15.726 33.648c.444-.01.846.255 1.018.664l1.273 2.96a6.44 6.44 0 0 0 5.921 3.904h2.022c.677 0 1.312-.32 1.717-.86l.645-.857a1.075 1.075 0 1 1 1.717 1.29l-.641.861a4.31 4.31 0 0 1-3.442 1.717h-2.021a8.602 8.602 0 0 1-7.9-5.205l-1.266-2.961a1.075 1.075 0 0 1 .957-1.513zm31.201 0c.781-.007 1.309.8.993 1.513l-1.269 2.961a8.602 8.602 0 0 1-7.896 5.205h-2.026a4.31 4.31 0 0 1-3.438-1.717l-.646-.86a1.075 1.075 0 1 1 1.721-1.29l.642.856c.405.54 1.04.86 1.718.86h2.025a6.437 6.437 0 0 0 5.922-3.904l1.269-2.96c.164-.398.551-.66.982-.664h.003zm-19.912.538c.178-.004.357.036.519.119l3.81 1.906 3.811-1.906c.344-.177.757-.151 1.079.064l1.61 1.075c1.193.8-.004 2.588-1.197 1.789l-1.09-.732-3.736 1.875c-.3.15-.66.15-.96 0l-3.735-1.875-1.09.732c-1.195.8-2.391-.993-1.198-1.789l1.613-1.075a1.07 1.07 0 0 1 .56-.18l.004-.003zm3.193 8.603H32.406a1.077 1.077 0 0 1 1.093 1.076c0 .598-.495 1.086-1.093 1.075h-2.123a1.077 1.077 0 1 1-.075-2.15z"/></symbol>
    <symbol id="icon-feature3" viewBox="0 0 64 64"><path fill-rule="evenodd" d="M50.385 13.615c-10.153-10.153-26.617-10.153-36.77 0-10.153 10.153-10.153 26.617 0 36.77 10.153 10.154 26.617 10.154 36.767 0 10.157-10.153 10.157-26.617.003-36.77zm-3.436 3.44c7.094 7.092 8.086 17.968 2.992 26.128L20.82 14.063c8.157-5.097 19.036-4.102 26.129 2.991zM17.054 46.948c-7.093-7.093-8.085-17.972-2.992-26.13l29.119 29.12c-8.158 5.096-19.034 4.1-26.127-2.99z"/></symbol>
    <symbol id="icon-feature4" viewBox="0 0 64 64"><path fill-rule="evenodd" d="M50.1 33H60v16h-9.9L33 53.8c-.3.1-.5.1-.8.1-.4 0-.9-.1-1.3-.3L1.7 39.5C.7 39 0 37.9 0 36.8V34c0-1 .5-2 1.3-2.6.8-.6 1.9-.7 2.8-.3l26 10.4c.4.2.8.1 1.1-.2l1.8-1.8c.4-.3.3-.7.3-.9-.1-.1-.2-.5-.7-.7L28 36.4c-1.3-.4-2.1-1.5-2.1-2.8v-3c0-1 .5-1.8 1.2-2.4.7-.5 1.7-.7 2.6-.5L50.1 33zM13 30c-5 0-9-4-9-9s4-9 9-9c1.6 0 3.1.4 4.5 1.2l-1 1.7A7.3 7.3 0 0 0 13 14c-3.9 0-7 3.1-7 7s3.1 7 7 7c1.7 0 3.4-.6 4.6-1.7l1.3 1.5A8.97 8.97 0 0 1 13 30zm37.5 1.8l-1-1.7c2.2-1.2 3.5-3.6 3.5-6.1 0-3.9-3.1-7-7-7-.9 0-1.8.2-2.6.5l-.8-1.9c1.1-.4 2.2-.7 3.4-.7 5 0 9 4 9 9 0 3.3-1.7 6.3-4.5 7.9zm-27-2.7C20 26.8 18 23.1 18 19c0-6.6 5.4-12 12-12s12 5.4 12 12c0 3.3-1.3 6.4-3.8 8.7l-1.4-1.5c2-1.9 3.1-4.5 3.1-7.3 0-5.5-4.5-10-10-10s-10 4.5-10 10c0 3.4 1.7 6.5 4.5 8.4l-.9 1.8z"/></symbol>
    <symbol id="icon-feature5" viewBox="0 0 64 64"><path fill-rule="evenodd" d="M21.835 21.693l1.031.588a4.403 4.403 0 0 1-2.397 2.175c.475-.819.928-1.738 1.366-2.763zm.425-1.103c.096-.434.037-.88-.144-1.265l1.047-.128c.053.2.097.406.121.619.057.456.041.905-.04 1.337l-.984-.563zm-7.722-.334l3.869-.475c-.785 1.919-1.54 3.194-2.172 4.037a4.389 4.389 0 0 1-1.697-3.562zm4.48-1.512l-4.37-2.497a4.502 4.502 0 0 1 3.47-2.438 4.506 4.506 0 0 1 5.014 3.81l.081-.01a.59.59 0 0 1 .143 1.17l-1.472.18a1.903 1.903 0 0 0-.808-.606 1.963 1.963 0 0 0-2.057.39zm-4.833-.023a5.905 5.905 0 0 1-.025-.393 4.529 4.529 0 0 1 .097-.969l3.653 2.09-3.662.45a.59.59 0 0 1-.144-1.168l.08-.01zm18.087 32.872l1.716-2.097-.572-2.762 1.428-4 3.622-2.003 2.19.478-.38-5.813 1.049-3.715 2.094-1.24 1.003-3.572-1.572-1.86 1.353-4.065 2.647-2.65-.112-3.785 2.925-2.73 2.39-.441 1.085-1.62.287-3.287 4.572-2.716L62 3v57.168H26.556l.763-4.097 1.903-2.478 3.05-2zM2.614 21.872c-1.179-1.703-.632-5.563 1.4-9.582A1.387 1.387 0 0 1 4.056 11l.122-.213c.238-.409.65-.656 1.09-.69 2.432-3.787 5.484-6.215 7.548-6.069-1.788 1.085-4.076 3.647-6.132 7 .078.222.097.462.053.697l7.797 4.456-.725.922-7.647-4.372c-.18.156-.397.262-.628.31-1.847 3.468-2.893 6.74-2.921 8.83zm20.59.606l-.072-.044.472-1.062 3.912 2.237.125-.147a1.56 1.56 0 0 1 2.587 1.7l2.863 1.638-.575 1.006-3.003-1.72-4.065 4.845a1.565 1.565 0 0 1-1.87.403l-3.721-1.775c-1.322 2.269-2.012 4.278-1.3 7.478.847-.265 1.85-.475 2.984-.478.922 0 1.931.147 2.943.537a8.29 8.29 0 0 1 2.895 1.907c1.774 1.784 3.069 4.456 3.85 8.306a2.44 2.44 0 0 1-2.394 2.925 2.44 2.44 0 0 1-2.387-1.956c-.492-2.444-1.188-4.04-1.86-5.022-.681-.984-1.288-1.381-1.856-1.61a3.255 3.255 0 0 0-1.19-.209c-.698-.003-1.457.197-2.045.438a6.64 6.64 0 0 0-1.015.506 2.439 2.439 0 0 1-2.053.303c.224 1.056.378 2.271.381 3.63.012 3.641-1.157 8.245-4.822 13.05a2.433 2.433 0 0 1-3.415.467 2.435 2.435 0 0 1-.466-3.416c3.062-4.05 3.818-7.463 3.831-10.1.007-3.3-1.297-5.466-1.34-5.528a2.419 2.419 0 0 1-.35-.9 1.136 1.136 0 0 1-.035-.125c-1.234-5.146-2.081-8.272-1.15-13.318.034.284.113.505.194.697.162.359.365.656.681.987.415.43.919.781 1.497 1.044.666.3 1.406.459 2.169.459 1.556 0 3.162-.735 4.521-2.066.482-.468.944-1.006 1.388-1.621.047.018.09.034.135.056l4.19 1.996 2.925-3.483-3.56-2.035zM9.317 25.8a1.78 1.78 0 0 1 2.66-1.544c.01.003.027.003.04.006 1.056.238 2.112.472 3.168.707-.772.668-1.288.759-1.619.765-.169 0-.316-.034-.431-.075l-.275-.018c.006.052.01.106.01.159 0 .053-.007.11-.01.162.197.09.437.16.713.16.477-.007 1.15-.163 2.106-1.075.943-.91 2.094-2.6 3.225-5.457a1.56 1.56 0 1 1 2.9 1.15c-1.241 3.125-2.56 5.194-3.954 6.547-1.371 1.344-2.89 1.957-4.277 1.957a4.815 4.815 0 0 1-1.979-.426 4.476 4.476 0 0 1-1.377-.96 3.088 3.088 0 0 1-.604-.874 2.18 2.18 0 0 1-.14-.46 1.753 1.753 0 0 1-.156-.724z"/></symbol>
    <symbol id="icon-feature6" viewBox="0 0 64 64"><path fill-rule="evenodd" d="M33.3 6.467c-.384-.155-.842-.31-1.222-.467-.381.154-.842.312-1.222.467C26.35 8.1 21.308 9.89 15.734 9.89c-1.603 0-3.131-.078-4.734-.233V36.67c0 5.916 5.804 11.444 10.615 15.024C26.045 54.963 30.549 57.22 32 58c3.283-1.633 21-10.74 21-21.33V9.737a47.523 47.523 0 0 1-4.734.233c-5.423-.076-10.54-1.867-14.966-3.503zm-5.653 35.107l-8.17-8.328c-.985-1.714-.977-2.933.023-3.658 1-.725 2.189-.725 3.566 0l4.581 4.67 14.661-15.023c1.128-.843 2.192-.843 3.192 0s1.132 2.063.397 3.658l-18.25 18.68z"/></symbol>
    <symbol id="icon-feature7" viewBox="0 0 64 64"><path fill-rule="evenodd" d="M20.777 55.804c.003.175.006.881.015 1.698-4.782.017-9.563.006-14.342.006-.7 0-1.333-.228-1.788-.765-.274-.326-.443-.746-.662-1.126v-23.82c.076-.18.149-.361.233-.533.517-1.114 1.432-1.54 2.614-1.54h13.977c-.038 1.552-.047 3.941-.047 3.436-.04 3.772-.05 7.55-.047 11.322.003 3.772.003 7.55.047 11.322zm39.077-26.442c.047.175.106.347.146.522v1.54a.312.312 0 0 0-.075.108c-.213 1.094-.634 2.086-1.39 2.926-.087.096-.063.33-.032.49.126.665.374 1.328.395 1.996.04 1.418-.493 2.672-1.369 3.775-.19.237-.19.423-.102.7.167.516.336 1.05.368 1.587.096 1.555-.452 2.917-1.375 4.148-.09.123-.168.341-.122.467.336.89.376 1.812.307 2.74-.187 2.441-1.651 4.25-3.985 5.014-1.173.386-2.378.461-3.598.461-7.01 0-14.017-.023-21.027.018-1.54.008-2.906-.36-4.181-1.164.041-6.59.058-13.18.058-19.771v-5.222a1.35 1.35 0 0 0 .112-.125c.942-1.208 1.948-2.38 2.753-3.676 1.558-2.518 3-5.103 4.487-7.657a3.158 3.158 0 0 0 .429-1.777c-.079-1.928-.094-3.86-.146-5.791-.038-1.371.64-2.33 1.791-2.935 1.804-.943 3.662-.96 5.543-.167.995.418 1.619 1.139 1.986 2.124.66 1.745 1.346 3.484 1.953 5.246.673 1.963.621 3.964.224 5.983-.292 1.49-.51 2.996-.764 4.493-.085.51-.064.542.464.542 4.104 0 8.209-.02 12.313.012a7.158 7.158 0 0 1 2.276.36c1.412.495 2.2 1.61 2.561 3.033z"/></symbol>
    <symbol id="icon-feature8" viewBox="0 0 64 64"><path fill-rule="evenodd" d="M52 59h-9v-3H21v3h-9v-3H7V7h50v49h-5v3zm-29.793-5H55V9H9v45h13.207zM49.99 14v35H14l.01-15.308h-1.945C10.8 33.692 10 32.71 10 31.5s.799-2.192 2.065-2.192h1.945L14 14h35.99zM48 47V16H16v13.305h1.207a3.716 3.716 0 0 1 2.99-1.502c2.047 0 3.715 1.659 3.715 3.697 0 2.038-1.665 3.697-3.716 3.697a3.715 3.715 0 0 1-2.989-1.503H16V47h32zm-12.999-9A7.008 7.008 0 0 1 28 31c0-3.86 3.14-7 7.001-7A7.007 7.007 0 0 1 42 31c0 3.86-3.14 7-6.999 7zm.852-1.777a5.3 5.3 0 0 0 4.37-4.372h-1.709a3.624 3.624 0 0 1-2.661 2.663v1.71zm0-10.443v1.706a3.633 3.633 0 0 1 2.661 2.663h1.709a5.3 5.3 0 0 0-4.37-4.37zm1.062 5.223A1.916 1.916 0 0 0 35 29.087c-1.056 0-1.916.86-1.916 1.916a1.92 1.92 0 0 0 1.916 1.916c1.054 0 1.914-.86 1.914-1.916zM34.15 25.78a5.308 5.308 0 0 0-4.373 4.37h1.71a3.633 3.633 0 0 1 2.663-2.662V25.78zm-2.663 6.074l-1.707.003a5.3 5.3 0 0 0 4.37 4.37v-1.71a3.63 3.63 0 0 1-2.663-2.663z"/></symbol>

  </defs>
</svg>