<svg display="none" version="1.1" xmlns="http://www.w3.org/2000/svg" xmlns:xlink="http://www.w3.org/1999/xlink">
  <defs>

    <symbol id="icon-social-telegram-small" viewBox="0 0 32 32"><path d="M29.946 3.104L.68 14.32c-.948.364-.89 1.701.085 1.985l7.437 2.16 2.775 8.661c.29.905 1.456 1.18 2.131.502l3.845-3.862 7.544 5.447c.924.666 2.239.171 2.473-.931l4.997-23.496c.244-1.15-.907-2.11-2.02-1.682zm-3.669 5.214L12.683 20.14a.714.714 0 0 0-.242.458l-.523 4.575c-.017.15-.23.17-.275.026L9.49 18.376a.713.713 0 0 1 .312-.824L25.855 7.76c.37-.225.748.275.422.558z"/></symbol>
    <symbol id="icon-social-telegram-channel" viewBox="0 0 32 32"><path fill-rule="evenodd" d="M17.733 8.933v-.265l8.34-6.31C27.27 1.48 29 2.313 29 3.803l-.044 20.64c0 1.49-1.73 2.366-2.927 1.447l-8.296-6.268v-.29h-6.5l2.03 9.158c.135.62-.31 1.198-.932 1.198l-2.666.044a.948.948 0 0 1-.932-.754L6.555 19.87h-.357A3.181 3.181 0 0 1 3 16.847v-5.019c.088-1.69 1.468-2.895 3.198-2.895h11.535z"/></symbol>
    <symbol id="icon-social-telegram-group" viewBox="0 0 32 32"><path d="M15 17c-1.5 1.5-5 3-5 5.833V27H0v-4.167C0 18.95 7.345 17 11.01 17c.456 0 3.44-.083 3.99 0zm7 2c3.329 0 10 1.56 10 4.667V27H12v-3.333C12 20.56 18.671 19 22 19zm0-2a4 4 0 1 1 0-8 4 4 0 0 1 0 8zm-10.496-2.268a4.866 4.866 0 1 1 0-9.732 4.866 4.866 0 0 1 0 9.732z"/></symbol>
    <symbol id="icon-social-github-small" viewBox="0 0 32 32"><path d="M16 0C7.164 0 0 7.35 0 16.407c0 7.25 4.586 13.393 10.943 15.564.1.022.186.029.271.029.593 0 .822-.436.822-.814 0-.393-.015-1.422-.022-2.793-.6.136-1.135.193-1.614.193-3.079 0-3.779-2.393-3.779-2.393-.728-1.893-1.778-2.4-1.778-2.4-1.393-.979-.007-1.007.1-1.007 1.614.143 2.457 1.7 2.457 1.7.8 1.4 1.871 1.793 2.829 1.793.75 0 1.428-.243 1.828-.429.143-1.057.557-1.779 1.014-2.193-3.55-.414-7.285-1.821-7.285-8.107 0-1.793.621-3.257 1.643-4.4-.165-.414-.715-2.086.157-4.343 0 0 .114-.036.357-.036.578 0 1.886.222 4.043 1.722a14.989 14.989 0 0 1 4.007-.55c1.357.007 2.728.186 4.007.55 2.157-1.5 3.464-1.722 4.043-1.722.243 0 .357.036.357.036.871 2.257.321 3.929.157 4.343 1.022 1.15 1.643 2.614 1.643 4.4 0 6.3-3.743 7.686-7.307 8.093.571.507 1.086 1.507 1.086 3.036 0 2.192-.022 3.964-.022 4.5 0 .385.222.821.814.821.086 0 .186-.007.286-.029C27.421 29.8 32 23.65 32 16.407 32 7.35 24.836 0 16 0z"/></symbol>
    <symbol id="icon-social-weibo-small" viewBox="0 0 32 32"><path d="M23.538 16.111c-.441-.136-.744-.23-.513-.827.5-1.297.552-2.416.01-3.214-1.018-1.498-3.8-1.418-6.99-.04 0-.002-1.002.451-.746-.368.49-1.626.416-2.987-.347-3.773-1.73-1.785-6.333.068-10.281 4.133C1.715 15.07 0 18.297 0 21.09 0 26.428 6.644 30 13.145 30c8.522 0 14.192-5.427 14.192-9.478 0-2.448-2.001-3.837-3.799-4.411zM13.163 27.606c-5.187.52-9.665-1.865-10.002-5.333-.337-3.466 3.596-6.7 8.783-7.222 5.188-.523 9.666 1.865 10.002 5.331.336 3.468-3.594 6.702-8.783 7.224zM32 11.763C31.997 6.371 27.68 2 22.352 2c-.622 0-1.126.51-1.126 1.14 0 .63.504 1.14 1.126 1.14 4.085 0 7.397 3.352 7.397 7.487 0 .63.504 1.14 1.125 1.14.622 0 1.126-.51 1.126-1.14v-.004zm-4.473-.167c-.514-2.543-2.494-4.547-5.005-5.067a1.125 1.125 0 0 0-1.329.886 1.14 1.14 0 0 0 .875 1.346 4.214 4.214 0 0 1 3.254 3.294c.126.616.72 1.012 1.33.886.608-.127 1-.73.875-1.345zm-17.025 6.85c-2.09.426-3.5 2.2-3.15 3.962.35 1.763 2.328 2.848 4.418 2.422 2.09-.425 3.5-2.199 3.15-3.962-.35-1.762-2.328-2.847-4.418-2.422z"/></symbol>
    <symbol id="icon-social-twitter-small" viewBox="0 0 32 32"><path d="M28.724 9.376c.013.277.02.556.02.836 0 8.54-6.605 18.388-18.68 18.388-3.707 0-7.159-1.07-10.064-2.904.514.06 1.036.09 1.566.09 3.076 0 5.907-1.032 8.154-2.766-2.873-.052-5.297-1.92-6.133-4.488a6.648 6.648 0 0 0 2.965-.11c-3.003-.595-5.266-3.206-5.266-6.338v-.08a6.622 6.622 0 0 0 2.974.807c-1.762-1.158-2.92-3.137-2.92-5.38a6.35 6.35 0 0 1 .888-3.248 18.738 18.738 0 0 0 13.531 6.753 6.403 6.403 0 0 1-.17-1.474C15.59 5.894 18.53 3 22.154 3c1.89 0 3.595.785 4.792 2.04 1.496-.289 2.9-.827 4.169-1.568a6.497 6.497 0 0 1-2.886 3.576A13.298 13.298 0 0 0 32 6.031a13.233 13.233 0 0 1-3.276 3.345z"/></symbol>
    <symbol id="icon-social-reddit-small" viewBox="0 0 32 32"><path d="M31 16.538a3.295 3.295 0 0 0-3.41-3.17 3.3 3.3 0 0 0-2.156.913 16.013 16.013 0 0 0-8.672-2.771l1.462-7.026 4.82 1.013a2.252 2.252 0 1 0 4.479-.481 2.252 2.252 0 0 0-4.182-.896l-5.52-1.103a.698.698 0 0 0-.835.532v.011l-1.663 7.816a16.134 16.134 0 0 0-8.784 2.771 3.284 3.284 0 0 0-4.647.146 3.284 3.284 0 0 0 1.03 5.24c-.022.33-.022.66 0 .99 0 5.045 5.88 9.149 13.13 9.149 7.25 0 13.128-4.098 13.128-9.148.022-.33.022-.66 0-.991A3.288 3.288 0 0 0 31 16.538zM8.475 18.794a2.26 2.26 0 0 1 2.257-2.256 2.26 2.26 0 0 1 2.256 2.256 2.26 2.26 0 0 1-2.256 2.256 2.264 2.264 0 0 1-2.257-2.256zm13.084 6.192a8.648 8.648 0 0 1-5.565 1.735 8.648 8.648 0 0 1-5.565-1.735.608.608 0 1 1 .857-.857 7.358 7.358 0 0 0 4.686 1.417 7.413 7.413 0 0 0 4.708-1.372.634.634 0 0 1 .89.011c.241.247.236.65-.01.89v-.09zm-.403-3.858a2.26 2.26 0 0 1-2.256-2.256 2.26 2.26 0 0 1 2.256-2.256 2.26 2.26 0 0 1 2.256 2.256 2.252 2.252 0 0 1-2.16 2.34h-.113l.017-.084z"/></symbol>
    <symbol id="icon-social-email-small" viewBox="0 0 32 32"><path fill-rule="evenodd" d="M14.297 18.207L0 8.2C0 6.44 1.44 5 3.2 5h25.6C30.56 5 32 6.44 32 8.2L17.703 18.207c-.89.623-2.516.623-3.406 0zM16 21.577c-1.273 0-2.546-.341-3.54-1.02L0 12v11.861C0 25.588 1.44 27 3.2 27h25.6c1.76 0 3.2-1.412 3.2-3.139V12l-12.46 8.556c-.994.68-2.267 1.02-3.54 1.02z"/></symbol>
    <symbol id="icon-alert" viewBox="0 0 32 32"><path fill-rule="evenodd" d="M28.4 31H3.6c-1.455 0-2.626-.59-3.211-1.62-.588-1.029-.506-2.35.22-3.625l12.4-21.75C13.736 2.732 14.827 2 15.999 2c1.174 0 2.263.732 2.99 2.006l12.4 21.749c.729 1.275.81 2.596.222 3.625C31.024 30.41 29.853 31 28.4 31zM15.999 5c.165 0 .45.206.714.665l12.033 21.089c.262.459.297.811.214.955-.082.146-.401.291-.926.291H3.966c-.525 0-.844-.145-.926-.29-.083-.145-.048-.497.214-.956L15.287 5.667C15.55 5.206 15.834 5 16 5zm-1.557 13.865c.068.659.185 1.145.356 1.484.214.425.61.651 1.148.651.526 0 .925-.229 1.155-.66.186-.353.304-.832.36-1.46l.462-4.88c.051-.458.077-.917.077-1.365 0-.8-.115-1.405-.35-1.851-.19-.358-.616-.784-1.574-.784-.615 0-1.122.192-1.506.57-.378.371-.57.883-.57 1.52 0 .41.032 1.088.097 2.015l.345 4.76zM15.99 22c-.554 0-1.028.197-1.412.583A1.938 1.938 0 0 0 14 23.995c0 .626.209 1.125.618 1.484.396.347.864.521 1.393.521.522 0 .987-.178 1.379-.528.404-.363.61-.858.61-1.476a1.92 1.92 0 0 0-.593-1.415A1.942 1.942 0 0 0 15.991 22z"/></symbol>

  </defs>
</svg>