<svg xmlns="http://www.w3.org/2000/svg" width="517" height="160" viewBox="0 0 517 160"><g fill="none" fill-rule="evenodd" transform="translate(-801 -104)"><path fill="#ABE617" d="M868.556 218.743L842.806 264H825.3l55.414-97.397-13.064-5.24c-6.04-2.39-12.48-4.252-19.318-4.252-6.725 0-12.908 1.919-18.55 4.423-5.641 2.505-12.679 7.058-21.113 13.661l3.501-20.874c15.729-11.043 25.05-13.941 34.965-13.941 7.18 0 14.417.548 21.712 3.395l20.28 8.043L916.331 104h17.507l-56.882 99.976 8.138 3.228c8.776 3.415 17.039 5.79 24.789 5.79 11.17 0 27.264-8.507 41.283-20.688l-3.501 22.07c-14.247 10.246-26.784 14.494-37.611 14.494-9.232 0-18.179-.833-26.84-4.248l-14.66-5.88zM910.333 161c2.522.222 4.32.333 5.39.333 11.17 0 27.094-8.387 41.113-20.568l-3.501 22.07c-14.247 10.246-26.832 13.82-37.611 14.494-3.594.225-8.28-.218-14.057-1.329l8.666-15zm-62.83 48.72c-2.522-.223-4.319-.334-5.39-.334-11.17 0-27.094 8.387-41.113 20.568l3.501-22.07c14.247-10.245 26.832-13.82 37.611-14.494 3.594-.225 8.28.218 14.057 1.33l-8.666 15z"/><g fill="#FFFFFF" transform="translate(989 108)"><path d="M125.564 34.503V30h14.27v73.827l8.248.658v4.452h-22.518v-4.452l8.248-.658V35.16l-8.248-.658zm31.677 69.982l8.248-.658V59.349l-8.248-.658v-4.504h14.27v49.64l8.247.658v4.452h-22.517v-4.452zM171.51 38.5h-6.022V30h6.021v8.5zm65.477 44.58c0 8.197-1.856 14.733-5.566 19.607-3.711 4.875-8.822 7.312-15.333 7.312-4.014 0-7.472-.801-10.373-2.404-2.9-1.602-5.245-3.904-7.033-6.907l-.658 8.248h-5.161V35.161l-8.248-.658V30h14.27v32.79c1.82-3.07 4.148-5.44 6.982-7.11 2.834-1.67 6.207-2.505 10.12-2.505 6.578 0 11.723 2.623 15.434 7.869 3.71 5.245 5.566 12.237 5.566 20.974v1.062zm-6.123-1.063c0-6.983-1.35-12.659-4.048-17.027-2.699-4.37-6.68-6.553-11.942-6.553-4.25 0-7.666 1.045-10.247 3.137-2.58 2.091-4.495 4.773-5.743 8.045v24.744c1.35 3.171 3.365 5.693 6.047 7.565 2.682 1.872 6.03 2.809 10.044 2.809 5.263 0 9.226-1.957 11.891-5.87 2.665-3.913 3.998-9.176 3.998-15.788v-1.062zm27.5-27.83l.76 9.107v.658c1.551-3.373 3.668-6.013 6.35-7.919 2.681-1.906 5.86-2.859 9.538-2.859.776 0 1.526.06 2.252.177.725.118 1.324.245 1.796.38l-.81 5.667-4.503-.303c-3.812 0-6.94 1.07-9.387 3.213-2.445 2.142-4.191 5.085-5.237 8.83v32.688l8.248.658v4.452h-22.517v-4.452l8.248-.658V59.349l-8.248-.658v-4.504h13.51zM308.08 110c-6.881 0-12.582-2.522-17.103-7.565-4.52-5.043-6.78-11.46-6.78-19.253v-2.784c0-7.826 2.251-14.32 6.755-19.48 4.503-5.162 9.943-7.743 16.319-7.743 6.713 0 11.992 2.125 15.838 6.376 3.845 4.25 5.768 9.918 5.768 17.002v5.161h-38.659v1.468c0 6.14 1.645 11.292 4.934 15.458s7.598 6.25 12.928 6.25c3.745 0 6.95-.524 9.614-1.57 2.665-1.045 4.942-2.546 6.832-4.503l2.58 4.15c-2.058 2.158-4.655 3.87-7.792 5.135-3.138 1.265-6.882 1.898-11.234 1.898zm-.81-51.664c-4.452 0-8.205 1.712-11.258 5.136-3.053 3.424-4.832 7.717-5.338 12.878l.1.253h32.082v-1.518c0-4.756-1.4-8.737-4.2-11.941-2.8-3.205-6.595-4.808-11.385-4.808z"/><path fill-rule="nonzero" d="M73.585 152.306c-11.087 0-19.167-2.62-24.24-7.844-5.065-5.239-7.601-10.882-7.601-16.928 0-2.209.44-4.075 1.329-5.582a9.657 9.657 0 0 1 3.622-3.58c1.534-.868 3.417-1.31 5.658-1.31 2.24 0 4.13.442 5.665 1.31a9.683 9.683 0 0 1 3.622 3.58c.888 1.507 1.329 3.373 1.329 5.582 0 2.673-.646 4.85-1.944 6.541-1.299 1.69-2.833 2.787-4.602 3.313 1.534 2.094 3.949 3.579 7.252 4.447 3.304.937 6.607 1.401 9.903 1.401a22.205 22.205 0 0 0 12.477-3.663c3.713-2.444 6.454-6.054 8.216-10.813 1.77-4.775 2.658-10.182 2.658-16.229 0-6.572-.972-12.184-2.916-16.837-1.89-4.714-4.693-8.202-8.407-10.471a22.658 22.658 0 0 0-12.028-3.396c-2.825 0-6.364 1.157-10.61 3.487l-7.783 3.838v-3.838l35.023-46.057H41.744v47.801c0 3.96.88 7.212 2.658 9.77 1.762 2.56 4.48 3.839 8.125 3.839 2.833 0 5.544-.93 8.141-2.795a28.595 28.595 0 0 0 6.72-6.8c.183-.458.491-.854.89-1.143a1.79 1.79 0 0 1 1.146-.426c.653 0 1.412.32 2.3.952a4.721 4.721 0 0 1 1.239 3.229 22.293 22.293 0 0 1-.44 2.444c-2.006 4.417-4.785 7.79-8.316 10.12a20.826 20.826 0 0 1-11.672 3.489c-10.495 0-17.747-2.034-21.757-6.108-4.01-4.066-6.014-9.595-6.014-16.57V39.256H0v-8.902h24.756V10.128l-5.65-5.59V0h16.449l6.189 3.138v27.217l64.024-.176 6.38 6.283L72.87 75.194a26.592 26.592 0 0 1 7.427-1.752c4.253 0 9.022 1.34 14.33 4.02 5.369 2.613 9.492 6.223 12.378 10.815 2.893 4.538 4.754 8.902 5.574 13.09a54.672 54.672 0 0 1 1.33 11.164 45.95 45.95 0 0 1-4.778 20.76 30.698 30.698 0 0 1-14.504 14.301 47.662 47.662 0 0 1-21.043 4.714z"/></g></g></svg>