<svg xmlns="http://www.w3.org/2000/svg" width="353" height="125" viewBox="0 0 353 125"><g fill="#FFFFFF" fill-rule="evenodd"><path d="M94.23 5.63V0h17.804v92.283l10.29.823v5.566H94.232v-5.566l10.29-.823V6.452l-10.29-.823zm39.522 87.476l10.29-.823V36.686l-10.29-.823v-5.629h17.803v62.05l10.29.822v5.566h-28.093v-5.566zm17.803-82.48h-7.513V0h7.513v10.626zM233.25 66.35c0 10.247-2.315 18.417-6.945 24.51-4.63 6.093-11.006 9.14-19.13 9.14-5.008 0-9.322-1.001-12.941-3.004-3.62-2.003-6.545-4.881-8.776-8.634l-.82 10.31h-6.44V6.452l-10.29-.823V0h17.803v40.987c2.273-3.838 5.177-6.8 8.712-8.887 3.535-2.087 7.744-3.131 12.627-3.131 8.207 0 14.625 3.278 19.255 9.836 4.63 6.557 6.945 15.296 6.945 26.217v1.328zm-7.64-1.328c0-8.729-1.683-15.823-5.05-21.284-3.367-5.46-8.334-8.19-14.9-8.19-5.303 0-9.564 1.306-12.784 3.92-3.22 2.615-5.608 5.967-7.165 10.058v30.93c1.683 3.963 4.198 7.115 7.544 9.455 3.346 2.34 7.523 3.51 12.532 3.51 6.566 0 11.511-2.445 14.836-7.336 3.325-4.892 4.987-11.47 4.987-19.735v-1.328zm36.807-34.788l.947 11.385v.822c1.936-4.216 4.577-7.516 7.923-9.898 3.346-2.383 7.313-3.574 11.9-3.574.968 0 1.905.074 2.81.221.905.148 1.652.306 2.24.475l-1.01 7.084-5.618-.38c-4.756 0-8.66 1.34-11.711 4.017-3.051 2.677-5.23 6.357-6.534 11.037v40.86l10.29.823v5.566H245.56v-5.566l10.291-.823V36.686l-10.29-.823v-5.629h16.856zM326.937 100c-8.586 0-15.699-3.152-21.339-9.456-5.64-6.304-8.46-14.326-8.46-24.067v-3.479c0-9.783 2.81-17.9 8.429-24.352 5.619-6.451 12.405-9.677 20.36-9.677 8.376 0 14.962 2.657 19.76 7.97 4.799 5.313 7.198 12.397 7.198 21.252v6.452H304.65v1.834c0 7.674 2.052 14.115 6.156 19.323 4.103 5.208 9.48 7.812 16.13 7.812 4.672 0 8.67-.654 11.995-1.961 3.325-1.307 6.166-3.184 8.523-5.63l3.22 5.187c-2.567 2.699-5.808 4.839-9.722 6.42-3.915 1.581-8.586 2.372-14.016 2.372zm-1.01-64.58c-5.556 0-10.238 2.14-14.047 6.42-3.809 4.28-6.03 9.646-6.66 16.098l.126.316h40.026v-1.897c0-5.946-1.747-10.922-5.24-14.928-3.493-4.005-8.228-6.008-14.205-6.008zm-287.002 71.3c0 2.414 1.082 4.531 3.244 6.351 2.163 1.82 5.564 2.73 10.203 2.73 5.505 0 10.125-1.048 13.86-3.145 3.735-2.097 5.603-7.676 5.603-16.736 0-9.021-1.868-14.58-5.603-16.677-3.735-2.097-15.57-3.007-35.505-2.73L72.484 41.2H22.412v29.97c0 5.856.452 9.922 1.356 12.197.904 2.275 2.33 3.946 4.276 5.014 1.946 1.069 4.276 1.603 6.989 1.603 2.162 0 5.426-.673 9.79-2.018v9.258c-5.347 1.306-9.436 1.959-12.267 1.959-4.09 0-7.775-.831-11.059-2.493-3.283-1.662-5.78-4.075-7.49-7.24-1.71-3.166-2.565-8.21-2.565-15.134V40.251H0v-9.199h11.442V15.385h10.97v15.667h63.165v10.149L54.496 67.61c9.947.554 16.907 2.433 20.878 5.638 5.268 4.194 7.903 11.75 7.903 22.67 0 10.96-2.625 18.547-7.874 22.76-5.249 4.214-12.73 6.321-22.44 6.321-5.073 0-9.408-.801-13.005-2.404-3.598-1.602-6.508-3.907-8.73-6.914-2.22-3.007-3.331-5.994-3.331-8.961v-.594h11.028v.594z"/></g></svg>