<svg xmlns="http://www.w3.org/2000/svg" width="256" height="256" viewBox="0 0 256 256"><g fill="none" fill-rule="evenodd"><circle cx="128" cy="128" r="128" fill="#1F260B"/><path fill="#ABE617" d="M117.556 162.743L91.806 208H74.3l55.414-97.397-13.064-5.24c-6.04-2.39-12.48-4.252-19.318-4.252-6.725 0-12.908 1.919-18.55 4.423-5.641 2.505-12.679 7.058-21.113 13.661l3.501-20.874C76.9 87.278 86.22 84.38 96.135 84.38c7.18 0 14.417.548 21.712 3.395l20.28 8.043L165.331 48h17.507l-56.882 99.976 8.138 3.228c8.776 3.415 17.039 5.79 24.789 5.79 11.17 0 27.264-8.507 41.283-20.688l-3.501 22.07c-14.247 10.246-26.784 14.494-37.611 14.494-9.232 0-18.179-.833-26.84-4.248l-14.66-5.88zM159.333 105c2.522.222 4.32.333 5.39.333 11.17 0 27.094-8.387 41.113-20.568l-3.501 22.07c-14.247 10.246-26.832 13.82-37.611 14.494-3.594.225-8.28-.218-14.057-1.329l8.666-15zm-62.83 48.72c-2.522-.223-4.319-.334-5.39-.334-11.17 0-27.094 8.387-41.113 20.568l3.501-22.07c14.247-10.245 26.832-13.82 37.611-14.494 3.594-.225 8.28.218 14.057 1.33l-8.666 15z"/></g></svg>