<svg xmlns="http://www.w3.org/2000/svg" width="256" height="256" viewBox="0 0 256 256"><g fill="none" fill-rule="evenodd"><circle cx="128" cy="128" r="128" fill="#1F260B"/><path fill="#ABE617" d="M116.889 162.743L91.139 208H73.634l55.415-97.397-13.065-5.24c-6.04-2.39-12.48-3.586-19.318-3.586-6.724 0-12.907 1.253-18.55 3.757-5.64 2.505-12.678 7.058-21.113 13.661l3.502-20.874C76.232 87.278 85.553 84.38 95.468 84.38c7.18 0 14.418.548 21.712 3.395l20.28 8.043L164.666 48h17.506l-56.882 99.976 8.138 3.228c8.776 3.415 17.039 5.123 24.79 5.123 11.168 0 27.264-7.84 41.282-20.021L196 158.376c-14.247 10.246-26.784 14.494-37.611 14.494-9.232 0-18.179-.833-26.84-4.248l-14.66-5.88zm32.474-45.307l8.917-15.756c2.357.292 4.67.439 6.94.439 11.169 0 27.264-7.84 41.283-20.02L203 104.167c-14.246 10.246-26.783 14.495-37.61 14.495-5.442 0-10.784-.29-16.028-1.227zm-53.302 38.911a55.788 55.788 0 0 0-6.399-.362c-6.724 0-12.907 1.252-18.549 3.757-5.641 2.504-12.679 7.058-21.113 13.661l3.501-20.874c15.729-11.043 25.05-13.942 34.965-13.942 5.515 0 11.064.324 16.647 1.764l-9.052 15.996z"/></g></svg>