<svg xmlns="http://www.w3.org/2000/svg" width="258" height="120" viewBox="0 0 258 120"><g fill="#1F260B" fill-rule="evenodd"><path d="M98.482 27.062v-3.533h11.192v57.904l6.469.516v3.492H98.482V81.95l6.469-.516V27.577l-6.47-.515zm24.844 54.887l6.469-.516V46.548l-6.469-.516V42.5h11.192v38.933l6.469.516v3.492h-17.661V81.95zm11.192-51.752h-4.723v-6.668h4.723v6.668zm51.355 34.964c0 6.43-1.456 11.556-4.366 15.379-2.91 3.823-6.919 5.735-12.025 5.735-3.149 0-5.86-.629-8.136-1.886-2.275-1.256-4.114-3.062-5.516-5.417l-.516 6.47h-4.048V27.576l-6.47-.515v-3.533h11.192v25.718c1.43-2.408 3.255-4.267 5.477-5.576 2.223-1.31 4.868-1.965 7.938-1.965 5.159 0 9.194 2.057 12.104 6.171 2.91 4.115 4.366 9.598 4.366 16.45v.834zm-4.802-.833c0-5.477-1.059-9.929-3.175-13.355-2.117-3.426-5.24-5.14-9.367-5.14-3.333 0-6.012.82-8.036 2.461-2.024 1.64-3.526 3.744-4.505 6.31v19.407c1.059 2.487 2.64 4.465 4.743 5.933 2.103 1.469 4.73 2.203 7.878 2.203 4.127 0 7.236-1.534 9.326-4.604 2.09-3.069 3.136-7.196 3.136-12.382v-.833zM202.639 42.5l.596 7.143v.516c1.217-2.645 2.877-4.716 4.98-6.21 2.104-1.496 4.597-2.243 7.481-2.243.609 0 1.198.046 1.766.139.57.093 1.039.192 1.41.298l-.636 4.445-3.532-.239c-2.99 0-5.443.84-7.362 2.52-1.918 1.68-3.287 3.99-4.107 6.926v25.638l6.469.516v3.492h-17.661V81.95l6.469-.516V46.548l-6.469-.516V42.5h10.596zm38.992 43.775c-5.398 0-9.869-1.978-13.414-5.934-3.546-3.955-5.318-8.989-5.318-15.1v-2.183c0-6.139 1.766-11.232 5.298-15.28s7.798-6.072 12.799-6.072c5.265 0 9.406 1.667 12.422 5 3.016 3.334 4.524 7.78 4.524 13.335v4.048h-30.32v1.151c0 4.816 1.29 8.857 3.869 12.125 2.58 3.267 5.96 4.901 10.14 4.901 2.937 0 5.45-.41 7.54-1.23 2.09-.82 3.876-1.998 5.358-3.532l2.024 3.254c-1.614 1.693-3.651 3.036-6.112 4.028-2.46.992-5.397 1.489-8.81 1.489zm-.635-40.52c-3.493 0-6.436 1.342-8.83 4.027-2.395 2.686-3.79 6.053-4.187 10.1l.079.2h25.161V58.89c0-3.731-1.098-6.853-3.294-9.367-2.196-2.513-5.172-3.77-8.93-3.77z"/><path fill-rule="nonzero" d="M57.714 119.456c-8.696 0-15.033-2.055-19.012-6.152-3.972-4.11-5.962-8.535-5.962-13.278 0-1.732.346-3.195 1.043-4.378a7.574 7.574 0 0 1 2.84-2.807c1.204-.68 2.68-1.027 4.438-1.027 1.757 0 3.24.346 4.443 1.027a7.594 7.594 0 0 1 2.841 2.807c.697 1.183 1.042 2.646 1.042 4.378 0 2.097-.506 3.805-1.524 5.131-1.019 1.326-2.222 2.186-3.61 2.598 1.203 1.643 3.097 2.807 5.688 3.488a28.361 28.361 0 0 0 7.767 1.1c3.474.04 6.882-.96 9.786-2.874 2.912-1.917 5.062-4.748 6.444-8.481 1.388-3.745 2.085-7.986 2.085-12.728 0-5.155-.763-9.557-2.287-13.206-1.483-3.697-3.681-6.433-6.594-8.212a17.771 17.771 0 0 0-9.434-2.664c-2.216 0-4.991.908-8.32 2.735l-6.106 3.01v-3.01l27.47-36.123H32.74V68.28c0 3.106.691 5.656 2.085 7.663 1.382 2.007 3.514 3.01 6.373 3.01 2.221 0 4.348-.728 6.385-2.192a22.427 22.427 0 0 0 5.27-5.333c.144-.36.386-.67.698-.896.251-.214.57-.332.899-.335.512 0 1.108.251 1.805.747.632.69.979 1.595.97 2.532-.079.645-.194 1.285-.345 1.918-1.572 3.464-3.752 6.11-6.522 7.937a16.334 16.334 0 0 1-9.154 2.736c-8.231 0-13.92-1.595-17.064-4.79-3.145-3.19-4.717-7.526-4.717-12.997V30.79H0v-6.982h19.417V7.944L14.985 3.56V0h12.901l4.854 2.46v21.348l50.216-.138 5.003 4.928-30.805 30.377a20.857 20.857 0 0 1 5.825-1.373c3.335 0 7.076 1.05 11.24 3.153 4.21 2.049 7.444 4.88 9.707 8.482 2.27 3.56 3.729 6.982 4.372 10.267a42.88 42.88 0 0 1 1.042 8.756 36.04 36.04 0 0 1-3.746 16.282 24.077 24.077 0 0 1-11.376 11.217 37.382 37.382 0 0 1-16.504 3.697z"/></g></svg>