<svg xmlns="http://www.w3.org/2000/svg" width="192" height="192" viewBox="0 0 192 192"><path fill="#ABE617" fill-rule="evenodd" d="M83.504 136.237L54.054 188H34.03L97.41 76.602 82.468 70.61c-6.908-2.734-14.274-4.101-22.095-4.101-7.691 0-14.763 1.432-21.215 4.297-6.453 2.864-14.503 8.073-24.149 15.625l4.005-23.875c17.989-12.63 28.65-15.946 39.99-15.946 8.213 0 16.49.628 24.833 3.883l23.195 9.2L138.149 5h20.023L93.113 119.348l9.308 3.691c10.037 3.906 19.488 5.86 28.352 5.86 12.775 0 31.184-8.967 47.218-22.899l-4.005 25.242c-16.294 11.719-30.633 16.578-43.017 16.578-10.56 0-20.792-.953-30.7-4.86l-16.765-6.723zm37.143-51.82l10.198-18.02a64.36 64.36 0 0 0 7.937.501c12.775 0 31.184-8.966 47.218-22.898l-4.005 25.242c-16.294 11.719-30.633 16.578-43.017 16.578-6.224 0-12.334-.33-18.331-1.403zm-60.965 44.505a63.807 63.807 0 0 0-7.318-.414c-7.691 0-14.763 1.432-21.216 4.297-6.452 2.864-14.502 8.073-24.148 15.625l4.005-23.875c17.989-12.63 28.65-15.946 39.99-15.946 6.309 0 12.655.37 19.04 2.018l-10.353 18.295z"/></svg>